<mxfile host="Electron" modified="2024-11-03T14:58:40.580Z" agent="Mozilla/5.0 (Windows NT 10.0; Win64; x64) AppleWebKit/537.36 (KHTML, like Gecko) draw.io/22.1.2 Chrome/114.0.5735.289 Electron/25.9.4 Safari/537.36" etag="i9bhFuJoJPSgN8i47g71" version="22.1.2" type="device">
  <diagram name="第 1 页" id="1AaUHSoJ7V8AeOtojfq8">
    <mxGraphModel dx="1110" dy="748" grid="1" gridSize="10" guides="1" tooltips="1" connect="1" arrows="1" fold="1" page="1" pageScale="1" pageWidth="1654" pageHeight="2336" math="0" shadow="0">
      <root>
        <mxCell id="0" />
        <mxCell id="1" parent="0" />
        <mxCell id="MvJsvNlHEroa7Sd6aKbU-5" style="edgeStyle=orthogonalEdgeStyle;rounded=0;orthogonalLoop=1;jettySize=auto;html=1;exitX=0.75;exitY=1;exitDx=0;exitDy=0;" parent="1" source="MvJsvNlHEroa7Sd6aKbU-42" target="MvJsvNlHEroa7Sd6aKbU-3" edge="1">
          <mxGeometry relative="1" as="geometry">
            <mxPoint x="785" y="990" as="sourcePoint" />
            <Array as="points">
              <mxPoint x="867" y="990" />
              <mxPoint x="870" y="990" />
            </Array>
          </mxGeometry>
        </mxCell>
        <mxCell id="MvJsvNlHEroa7Sd6aKbU-50" value="&lt;font style=&quot;font-size: 8px;&quot;&gt;Integer&amp;nbsp;Instrcutions&lt;/font&gt;" style="edgeLabel;html=1;align=center;verticalAlign=middle;resizable=0;points=[];" parent="MvJsvNlHEroa7Sd6aKbU-5" vertex="1" connectable="0">
          <mxGeometry x="-0.825" y="1" relative="1" as="geometry">
            <mxPoint as="offset" />
          </mxGeometry>
        </mxCell>
        <mxCell id="MvJsvNlHEroa7Sd6aKbU-27" style="edgeStyle=orthogonalEdgeStyle;rounded=0;orthogonalLoop=1;jettySize=auto;html=1;exitX=0.25;exitY=1;exitDx=0;exitDy=0;entryX=0.5;entryY=1;entryDx=0;entryDy=0;" parent="1" source="MvJsvNlHEroa7Sd6aKbU-42" target="MvJsvNlHEroa7Sd6aKbU-20" edge="1">
          <mxGeometry relative="1" as="geometry">
            <mxPoint x="695" y="1050" as="sourcePoint" />
          </mxGeometry>
        </mxCell>
        <mxCell id="MvJsvNlHEroa7Sd6aKbU-31" value="offset" style="edgeLabel;html=1;align=center;verticalAlign=middle;resizable=0;points=[];" parent="MvJsvNlHEroa7Sd6aKbU-27" vertex="1" connectable="0">
          <mxGeometry x="-0.2016" y="-2" relative="1" as="geometry">
            <mxPoint as="offset" />
          </mxGeometry>
        </mxCell>
        <mxCell id="MvJsvNlHEroa7Sd6aKbU-49" value="&lt;font style=&quot;font-size: 8px;&quot;&gt;Memory Instructions&lt;/font&gt;" style="edgeLabel;html=1;align=center;verticalAlign=middle;resizable=0;points=[];" parent="MvJsvNlHEroa7Sd6aKbU-27" vertex="1" connectable="0">
          <mxGeometry x="-0.8112" y="1" relative="1" as="geometry">
            <mxPoint as="offset" />
          </mxGeometry>
        </mxCell>
        <mxCell id="MvJsvNlHEroa7Sd6aKbU-11" style="edgeStyle=orthogonalEdgeStyle;rounded=0;orthogonalLoop=1;jettySize=auto;html=1;exitX=0.5;exitY=0;exitDx=0;exitDy=0;entryX=0.5;entryY=0;entryDx=0;entryDy=0;" parent="1" source="MvJsvNlHEroa7Sd6aKbU-2" target="MvJsvNlHEroa7Sd6aKbU-3" edge="1">
          <mxGeometry relative="1" as="geometry">
            <Array as="points">
              <mxPoint x="565" y="870" />
              <mxPoint x="1015" y="870" />
            </Array>
          </mxGeometry>
        </mxCell>
        <mxCell id="MvJsvNlHEroa7Sd6aKbU-65" value="Load:&lt;br&gt;Write Result" style="edgeLabel;html=1;align=center;verticalAlign=middle;resizable=0;points=[];" parent="MvJsvNlHEroa7Sd6aKbU-11" vertex="1" connectable="0">
          <mxGeometry x="-0.7742" relative="1" as="geometry">
            <mxPoint as="offset" />
          </mxGeometry>
        </mxCell>
        <mxCell id="MvJsvNlHEroa7Sd6aKbU-18" style="edgeStyle=orthogonalEdgeStyle;rounded=0;orthogonalLoop=1;jettySize=auto;html=1;exitX=0.5;exitY=1;exitDx=0;exitDy=0;entryX=0.5;entryY=0;entryDx=0;entryDy=0;" parent="1" source="MvJsvNlHEroa7Sd6aKbU-2" target="MvJsvNlHEroa7Sd6aKbU-17" edge="1">
          <mxGeometry relative="1" as="geometry" />
        </mxCell>
        <mxCell id="MvJsvNlHEroa7Sd6aKbU-70" style="edgeStyle=orthogonalEdgeStyle;rounded=0;orthogonalLoop=1;jettySize=auto;html=1;exitX=0;exitY=0.25;exitDx=0;exitDy=0;entryX=0;entryY=0;entryDx=0;entryDy=0;" parent="1" source="MvJsvNlHEroa7Sd6aKbU-2" target="MvJsvNlHEroa7Sd6aKbU-3" edge="1">
          <mxGeometry relative="1" as="geometry">
            <Array as="points">
              <mxPoint x="505" y="1170" />
              <mxPoint x="505" y="910" />
              <mxPoint x="975" y="910" />
            </Array>
          </mxGeometry>
        </mxCell>
        <mxCell id="MvJsvNlHEroa7Sd6aKbU-71" value="Store:&lt;br&gt;Write Result" style="edgeLabel;html=1;align=center;verticalAlign=middle;resizable=0;points=[];" parent="MvJsvNlHEroa7Sd6aKbU-70" vertex="1" connectable="0">
          <mxGeometry x="-0.542" y="-2" relative="1" as="geometry">
            <mxPoint as="offset" />
          </mxGeometry>
        </mxCell>
        <mxCell id="MvJsvNlHEroa7Sd6aKbU-2" value="LSB" style="whiteSpace=wrap;html=1;aspect=fixed;" parent="1" vertex="1">
          <mxGeometry x="525" y="1150" width="80" height="80" as="geometry" />
        </mxCell>
        <mxCell id="MvJsvNlHEroa7Sd6aKbU-60" style="edgeStyle=orthogonalEdgeStyle;rounded=0;orthogonalLoop=1;jettySize=auto;html=1;exitX=1;exitY=0.5;exitDx=0;exitDy=0;entryX=1;entryY=0.5;entryDx=0;entryDy=0;" parent="1" source="MvJsvNlHEroa7Sd6aKbU-3" target="MvJsvNlHEroa7Sd6aKbU-10" edge="1">
          <mxGeometry relative="1" as="geometry">
            <Array as="points">
              <mxPoint x="1230" y="990" />
              <mxPoint x="1230" y="1200" />
            </Array>
          </mxGeometry>
        </mxCell>
        <mxCell id="MvJsvNlHEroa7Sd6aKbU-72" style="edgeStyle=orthogonalEdgeStyle;rounded=0;orthogonalLoop=1;jettySize=auto;html=1;exitX=1;exitY=0.5;exitDx=0;exitDy=0;entryX=0;entryY=0.25;entryDx=0;entryDy=0;" parent="1" source="MvJsvNlHEroa7Sd6aKbU-3" target="MvJsvNlHEroa7Sd6aKbU-17" edge="1">
          <mxGeometry relative="1" as="geometry">
            <Array as="points">
              <mxPoint x="1230" y="990" />
              <mxPoint x="1230" y="1500" />
              <mxPoint x="380" y="1500" />
              <mxPoint x="380" y="1343" />
            </Array>
          </mxGeometry>
        </mxCell>
        <mxCell id="MvJsvNlHEroa7Sd6aKbU-73" value="Store:&lt;br&gt;Commit" style="edgeLabel;html=1;align=center;verticalAlign=middle;resizable=0;points=[];" parent="MvJsvNlHEroa7Sd6aKbU-72" vertex="1" connectable="0">
          <mxGeometry x="0.6011" relative="1" as="geometry">
            <mxPoint x="-40" y="-160" as="offset" />
          </mxGeometry>
        </mxCell>
        <mxCell id="MvJsvNlHEroa7Sd6aKbU-76" style="edgeStyle=orthogonalEdgeStyle;rounded=0;orthogonalLoop=1;jettySize=auto;html=1;exitX=1;exitY=0.5;exitDx=0;exitDy=0;entryX=0;entryY=0.5;entryDx=0;entryDy=0;" parent="1" source="MvJsvNlHEroa7Sd6aKbU-3" target="MvJsvNlHEroa7Sd6aKbU-2" edge="1">
          <mxGeometry relative="1" as="geometry">
            <Array as="points">
              <mxPoint x="1230" y="990" />
              <mxPoint x="1230" y="1500" />
              <mxPoint x="380" y="1500" />
              <mxPoint x="380" y="1190" />
            </Array>
          </mxGeometry>
        </mxCell>
        <mxCell id="MvJsvNlHEroa7Sd6aKbU-77" value="Store:&lt;br&gt;ready" style="edgeLabel;html=1;align=center;verticalAlign=middle;resizable=0;points=[];" parent="MvJsvNlHEroa7Sd6aKbU-76" vertex="1" connectable="0">
          <mxGeometry x="0.9187" relative="1" as="geometry">
            <mxPoint as="offset" />
          </mxGeometry>
        </mxCell>
        <mxCell id="MvJsvNlHEroa7Sd6aKbU-64" style="edgeStyle=orthogonalEdgeStyle;rounded=0;orthogonalLoop=1;jettySize=auto;html=1;exitX=1;exitY=0.5;exitDx=0;exitDy=0;entryX=1;entryY=0.5;entryDx=0;entryDy=0;" parent="1" source="MvJsvNlHEroa7Sd6aKbU-3" target="MvJsvNlHEroa7Sd6aKbU-4" edge="1">
          <mxGeometry relative="1" as="geometry">
            <Array as="points">
              <mxPoint x="1230" y="990" />
              <mxPoint x="1230" y="1090" />
              <mxPoint x="980" y="1090" />
              <mxPoint x="980" y="1190" />
            </Array>
          </mxGeometry>
        </mxCell>
        <mxCell id="MvJsvNlHEroa7Sd6aKbU-67" value="Commit" style="edgeLabel;html=1;align=center;verticalAlign=middle;resizable=0;points=[];" parent="MvJsvNlHEroa7Sd6aKbU-64" vertex="1" connectable="0">
          <mxGeometry x="-0.6949" y="1" relative="1" as="geometry">
            <mxPoint as="offset" />
          </mxGeometry>
        </mxCell>
        <mxCell id="MvJsvNlHEroa7Sd6aKbU-3" value="RoB" style="whiteSpace=wrap;html=1;aspect=fixed;" parent="1" vertex="1">
          <mxGeometry x="975" y="950" width="80" height="80" as="geometry" />
        </mxCell>
        <mxCell id="MvJsvNlHEroa7Sd6aKbU-15" style="edgeStyle=orthogonalEdgeStyle;rounded=0;orthogonalLoop=1;jettySize=auto;html=1;exitX=0.5;exitY=1;exitDx=0;exitDy=0;entryX=0.5;entryY=1;entryDx=0;entryDy=0;" parent="1" source="MvJsvNlHEroa7Sd6aKbU-4" target="MvJsvNlHEroa7Sd6aKbU-13" edge="1">
          <mxGeometry relative="1" as="geometry" />
        </mxCell>
        <mxCell id="MvJsvNlHEroa7Sd6aKbU-4" value="RS" style="whiteSpace=wrap;html=1;aspect=fixed;" parent="1" vertex="1">
          <mxGeometry x="865" y="1150" width="80" height="80" as="geometry" />
        </mxCell>
        <mxCell id="rLQXvGr-ElykhCDke65y-30" style="edgeStyle=orthogonalEdgeStyle;rounded=0;orthogonalLoop=1;jettySize=auto;html=1;exitX=0.5;exitY=0;exitDx=0;exitDy=0;entryX=0.75;entryY=1;entryDx=0;entryDy=0;" edge="1" parent="1" source="MvJsvNlHEroa7Sd6aKbU-10" target="MvJsvNlHEroa7Sd6aKbU-3">
          <mxGeometry relative="1" as="geometry">
            <Array as="points">
              <mxPoint x="1100" y="1060" />
              <mxPoint x="1035" y="1060" />
            </Array>
          </mxGeometry>
        </mxCell>
        <mxCell id="rLQXvGr-ElykhCDke65y-32" value="regDepencency" style="edgeLabel;html=1;align=center;verticalAlign=middle;resizable=0;points=[];" vertex="1" connectable="0" parent="rLQXvGr-ElykhCDke65y-30">
          <mxGeometry x="0.0381" relative="1" as="geometry">
            <mxPoint x="-10" as="offset" />
          </mxGeometry>
        </mxCell>
        <mxCell id="rLQXvGr-ElykhCDke65y-42" style="edgeStyle=orthogonalEdgeStyle;rounded=0;orthogonalLoop=1;jettySize=auto;html=1;exitX=0;exitY=0.5;exitDx=0;exitDy=0;entryX=1;entryY=0.75;entryDx=0;entryDy=0;" edge="1" parent="1" source="MvJsvNlHEroa7Sd6aKbU-10" target="MvJsvNlHEroa7Sd6aKbU-4">
          <mxGeometry relative="1" as="geometry" />
        </mxCell>
        <mxCell id="rLQXvGr-ElykhCDke65y-43" value="&lt;font style=&quot;font-size: 8px;&quot;&gt;reg&lt;br&gt;dependency&lt;/font&gt;" style="edgeLabel;html=1;align=center;verticalAlign=middle;resizable=0;points=[];" vertex="1" connectable="0" parent="rLQXvGr-ElykhCDke65y-42">
          <mxGeometry x="0.4071" y="-1" relative="1" as="geometry">
            <mxPoint as="offset" />
          </mxGeometry>
        </mxCell>
        <mxCell id="MvJsvNlHEroa7Sd6aKbU-10" value="Register File" style="rounded=0;whiteSpace=wrap;html=1;" parent="1" vertex="1">
          <mxGeometry x="1050" y="1120" width="100" height="160" as="geometry" />
        </mxCell>
        <mxCell id="MvJsvNlHEroa7Sd6aKbU-16" style="edgeStyle=orthogonalEdgeStyle;rounded=0;orthogonalLoop=1;jettySize=auto;html=1;exitX=0.5;exitY=0;exitDx=0;exitDy=0;entryX=0.5;entryY=1;entryDx=0;entryDy=0;" parent="1" source="MvJsvNlHEroa7Sd6aKbU-13" target="MvJsvNlHEroa7Sd6aKbU-3" edge="1">
          <mxGeometry relative="1" as="geometry" />
        </mxCell>
        <mxCell id="MvJsvNlHEroa7Sd6aKbU-66" value="Write Result" style="edgeLabel;html=1;align=center;verticalAlign=middle;resizable=0;points=[];" parent="MvJsvNlHEroa7Sd6aKbU-16" vertex="1" connectable="0">
          <mxGeometry x="-0.1278" relative="1" as="geometry">
            <mxPoint as="offset" />
          </mxGeometry>
        </mxCell>
        <mxCell id="rLQXvGr-ElykhCDke65y-36" style="edgeStyle=orthogonalEdgeStyle;rounded=0;orthogonalLoop=1;jettySize=auto;html=1;exitX=1;exitY=0.25;exitDx=0;exitDy=0;entryX=0;entryY=1;entryDx=0;entryDy=0;" edge="1" parent="1" source="MvJsvNlHEroa7Sd6aKbU-13" target="MvJsvNlHEroa7Sd6aKbU-4">
          <mxGeometry relative="1" as="geometry" />
        </mxCell>
        <mxCell id="rLQXvGr-ElykhCDke65y-37" value="update&lt;br&gt;dependency" style="edgeLabel;html=1;align=center;verticalAlign=middle;resizable=0;points=[];" vertex="1" connectable="0" parent="rLQXvGr-ElykhCDke65y-36">
          <mxGeometry x="0.3521" relative="1" as="geometry">
            <mxPoint as="offset" />
          </mxGeometry>
        </mxCell>
        <mxCell id="rLQXvGr-ElykhCDke65y-39" style="edgeStyle=orthogonalEdgeStyle;rounded=0;orthogonalLoop=1;jettySize=auto;html=1;exitX=1;exitY=1;exitDx=0;exitDy=0;entryX=1;entryY=0.75;entryDx=0;entryDy=0;" edge="1" parent="1" source="MvJsvNlHEroa7Sd6aKbU-13" target="MvJsvNlHEroa7Sd6aKbU-2">
          <mxGeometry relative="1" as="geometry">
            <Array as="points">
              <mxPoint x="750" y="1300" />
              <mxPoint x="750" y="1210" />
            </Array>
          </mxGeometry>
        </mxCell>
        <mxCell id="rLQXvGr-ElykhCDke65y-40" value="update&lt;br&gt;dependency" style="edgeLabel;html=1;align=center;verticalAlign=middle;resizable=0;points=[];" vertex="1" connectable="0" parent="rLQXvGr-ElykhCDke65y-39">
          <mxGeometry x="-0.0727" y="-1" relative="1" as="geometry">
            <mxPoint as="offset" />
          </mxGeometry>
        </mxCell>
        <mxCell id="MvJsvNlHEroa7Sd6aKbU-13" value="ALU" style="shape=trapezoid;perimeter=trapezoidPerimeter;whiteSpace=wrap;html=1;fixedSize=1;rotation=0;size=30;direction=west;" parent="1" vertex="1">
          <mxGeometry x="845" y="1300" width="120" height="60" as="geometry" />
        </mxCell>
        <mxCell id="MvJsvNlHEroa7Sd6aKbU-17" value="Memory" style="whiteSpace=wrap;html=1;aspect=fixed;" parent="1" vertex="1">
          <mxGeometry x="480" y="1300" width="170" height="170" as="geometry" />
        </mxCell>
        <mxCell id="MvJsvNlHEroa7Sd6aKbU-29" style="edgeStyle=orthogonalEdgeStyle;rounded=0;orthogonalLoop=1;jettySize=auto;html=1;exitX=0.5;exitY=0;exitDx=0;exitDy=0;entryX=1;entryY=0.5;entryDx=0;entryDy=0;" parent="1" source="MvJsvNlHEroa7Sd6aKbU-20" target="MvJsvNlHEroa7Sd6aKbU-2" edge="1">
          <mxGeometry relative="1" as="geometry" />
        </mxCell>
        <mxCell id="MvJsvNlHEroa7Sd6aKbU-20" value="Adder" style="shape=trapezoid;perimeter=trapezoidPerimeter;whiteSpace=wrap;html=1;fixedSize=1;direction=west;" parent="1" vertex="1">
          <mxGeometry x="673" y="1090" width="60" height="30" as="geometry" />
        </mxCell>
        <mxCell id="MvJsvNlHEroa7Sd6aKbU-32" value="Instruction Fetch Unit" style="whiteSpace=wrap;html=1;aspect=fixed;" parent="1" vertex="1">
          <mxGeometry x="665" y="260" width="290" height="290" as="geometry" />
        </mxCell>
        <mxCell id="MvJsvNlHEroa7Sd6aKbU-37" style="edgeStyle=orthogonalEdgeStyle;rounded=0;orthogonalLoop=1;jettySize=auto;html=1;exitX=1;exitY=0.5;exitDx=0;exitDy=0;entryX=0.5;entryY=1;entryDx=0;entryDy=0;" parent="1" source="MvJsvNlHEroa7Sd6aKbU-34" target="MvJsvNlHEroa7Sd6aKbU-36" edge="1">
          <mxGeometry relative="1" as="geometry" />
        </mxCell>
        <mxCell id="MvJsvNlHEroa7Sd6aKbU-41" style="edgeStyle=orthogonalEdgeStyle;rounded=0;orthogonalLoop=1;jettySize=auto;html=1;exitX=0.5;exitY=1;exitDx=0;exitDy=0;entryX=0.5;entryY=0;entryDx=0;entryDy=0;" parent="1" source="MvJsvNlHEroa7Sd6aKbU-34" target="MvJsvNlHEroa7Sd6aKbU-40" edge="1">
          <mxGeometry relative="1" as="geometry" />
        </mxCell>
        <mxCell id="MvJsvNlHEroa7Sd6aKbU-34" value="PC" style="rounded=0;whiteSpace=wrap;html=1;" parent="1" vertex="1">
          <mxGeometry x="690" y="450" width="70" height="70" as="geometry" />
        </mxCell>
        <mxCell id="MvJsvNlHEroa7Sd6aKbU-38" style="edgeStyle=orthogonalEdgeStyle;rounded=0;orthogonalLoop=1;jettySize=auto;html=1;exitX=0.5;exitY=0;exitDx=0;exitDy=0;entryX=0.5;entryY=0;entryDx=0;entryDy=0;" parent="1" source="MvJsvNlHEroa7Sd6aKbU-36" target="MvJsvNlHEroa7Sd6aKbU-34" edge="1">
          <mxGeometry relative="1" as="geometry">
            <Array as="points">
              <mxPoint x="840" y="485" />
              <mxPoint x="840" y="430" />
              <mxPoint x="725" y="430" />
            </Array>
          </mxGeometry>
        </mxCell>
        <mxCell id="MvJsvNlHEroa7Sd6aKbU-36" value="Adder" style="shape=trapezoid;perimeter=trapezoidPerimeter;whiteSpace=wrap;html=1;fixedSize=1;direction=south;" parent="1" vertex="1">
          <mxGeometry x="785" y="455" width="30" height="60" as="geometry" />
        </mxCell>
        <mxCell id="MvJsvNlHEroa7Sd6aKbU-43" style="edgeStyle=orthogonalEdgeStyle;rounded=0;orthogonalLoop=1;jettySize=auto;html=1;exitX=0.5;exitY=1;exitDx=0;exitDy=0;entryX=0.5;entryY=0;entryDx=0;entryDy=0;" parent="1" source="MvJsvNlHEroa7Sd6aKbU-40" target="MvJsvNlHEroa7Sd6aKbU-42" edge="1">
          <mxGeometry relative="1" as="geometry" />
        </mxCell>
        <mxCell id="MvJsvNlHEroa7Sd6aKbU-40" value="Instruction Queue" style="whiteSpace=wrap;html=1;aspect=fixed;" parent="1" vertex="1">
          <mxGeometry x="725" y="620" width="120" height="120" as="geometry" />
        </mxCell>
        <mxCell id="MvJsvNlHEroa7Sd6aKbU-51" style="edgeStyle=orthogonalEdgeStyle;rounded=0;orthogonalLoop=1;jettySize=auto;html=1;exitX=0.75;exitY=1;exitDx=0;exitDy=0;entryX=0;entryY=0.5;entryDx=0;entryDy=0;" parent="1" source="MvJsvNlHEroa7Sd6aKbU-42" target="MvJsvNlHEroa7Sd6aKbU-4" edge="1">
          <mxGeometry relative="1" as="geometry" />
        </mxCell>
        <mxCell id="MvJsvNlHEroa7Sd6aKbU-52" style="edgeStyle=orthogonalEdgeStyle;rounded=0;orthogonalLoop=1;jettySize=auto;html=1;exitX=0.25;exitY=1;exitDx=0;exitDy=0;entryX=0.25;entryY=0;entryDx=0;entryDy=0;" parent="1" source="MvJsvNlHEroa7Sd6aKbU-42" target="MvJsvNlHEroa7Sd6aKbU-3" edge="1">
          <mxGeometry relative="1" as="geometry" />
        </mxCell>
        <mxCell id="MvJsvNlHEroa7Sd6aKbU-53" style="edgeStyle=orthogonalEdgeStyle;rounded=0;orthogonalLoop=1;jettySize=auto;html=1;exitX=0.5;exitY=1;exitDx=0;exitDy=0;entryX=0;entryY=0.25;entryDx=0;entryDy=0;" parent="1" source="MvJsvNlHEroa7Sd6aKbU-42" target="MvJsvNlHEroa7Sd6aKbU-3" edge="1">
          <mxGeometry relative="1" as="geometry" />
        </mxCell>
        <mxCell id="MvJsvNlHEroa7Sd6aKbU-54" value="&lt;font style=&quot;font-size: 8px;&quot;&gt;Branch Instructions&lt;/font&gt;" style="edgeLabel;html=1;align=center;verticalAlign=middle;resizable=0;points=[];" parent="MvJsvNlHEroa7Sd6aKbU-53" vertex="1" connectable="0">
          <mxGeometry x="-0.8534" y="-2" relative="1" as="geometry">
            <mxPoint y="-1" as="offset" />
          </mxGeometry>
        </mxCell>
        <mxCell id="MvJsvNlHEroa7Sd6aKbU-42" value="Decoder" style="shape=trapezoid;perimeter=trapezoidPerimeter;whiteSpace=wrap;html=1;fixedSize=1;size=135;" parent="1" vertex="1">
          <mxGeometry x="620" y="770" width="330" height="60" as="geometry" />
        </mxCell>
        <mxCell id="MvJsvNlHEroa7Sd6aKbU-59" style="edgeStyle=orthogonalEdgeStyle;rounded=0;orthogonalLoop=1;jettySize=auto;html=1;exitX=0.5;exitY=0;exitDx=0;exitDy=0;entryX=0.25;entryY=0;entryDx=0;entryDy=0;" parent="1" source="MvJsvNlHEroa7Sd6aKbU-19" target="MvJsvNlHEroa7Sd6aKbU-34" edge="1">
          <mxGeometry relative="1" as="geometry">
            <Array as="points">
              <mxPoint x="900" y="370" />
              <mxPoint x="708" y="370" />
            </Array>
          </mxGeometry>
        </mxCell>
        <mxCell id="MvJsvNlHEroa7Sd6aKbU-69" value="&lt;font style=&quot;font-size: 20px;&quot;&gt;&lt;b&gt;CDB&lt;/b&gt;&lt;/font&gt;" style="text;strokeColor=none;fillColor=none;align=left;verticalAlign=middle;spacingLeft=4;spacingRight=4;overflow=hidden;points=[[0,0.5],[1,0.5]];portConstraint=eastwest;rotatable=0;whiteSpace=wrap;html=1;" parent="1" vertex="1">
          <mxGeometry x="1240" y="1020" width="60" height="30" as="geometry" />
        </mxCell>
        <mxCell id="MvJsvNlHEroa7Sd6aKbU-19" value="Predictor" style="ellipse;whiteSpace=wrap;html=1;aspect=fixed;" parent="1" vertex="1">
          <mxGeometry x="860" y="430" width="80" height="80" as="geometry" />
        </mxCell>
        <mxCell id="MvJsvNlHEroa7Sd6aKbU-57" style="edgeStyle=orthogonalEdgeStyle;rounded=0;orthogonalLoop=1;jettySize=auto;html=1;exitX=1;exitY=0.25;exitDx=0;exitDy=0;entryX=0.5;entryY=1;entryDx=0;entryDy=0;" parent="1" source="MvJsvNlHEroa7Sd6aKbU-3" target="MvJsvNlHEroa7Sd6aKbU-19" edge="1">
          <mxGeometry relative="1" as="geometry" />
        </mxCell>
        <mxCell id="rLQXvGr-ElykhCDke65y-14" value="Icache" style="rounded=0;whiteSpace=wrap;html=1;" vertex="1" parent="1">
          <mxGeometry x="707" y="290" width="83" height="40" as="geometry" />
        </mxCell>
        <mxCell id="rLQXvGr-ElykhCDke65y-24" value="" style="endArrow=classic;html=1;rounded=0;exitX=1;exitY=0.75;exitDx=0;exitDy=0;" edge="1" parent="1" source="MvJsvNlHEroa7Sd6aKbU-17">
          <mxGeometry width="50" height="50" relative="1" as="geometry">
            <mxPoint x="683" y="1430" as="sourcePoint" />
            <mxPoint x="1230" y="1428" as="targetPoint" />
          </mxGeometry>
        </mxCell>
        <mxCell id="rLQXvGr-ElykhCDke65y-25" value="isBusy" style="edgeLabel;html=1;align=center;verticalAlign=middle;resizable=0;points=[];" vertex="1" connectable="0" parent="rLQXvGr-ElykhCDke65y-24">
          <mxGeometry x="0.0658" y="-3" relative="1" as="geometry">
            <mxPoint as="offset" />
          </mxGeometry>
        </mxCell>
        <mxCell id="rLQXvGr-ElykhCDke65y-27" value="" style="endArrow=classic;html=1;rounded=0;exitX=0.619;exitY=0.005;exitDx=0;exitDy=0;exitPerimeter=0;entryX=0.75;entryY=1;entryDx=0;entryDy=0;" edge="1" parent="1" source="MvJsvNlHEroa7Sd6aKbU-17" target="MvJsvNlHEroa7Sd6aKbU-2">
          <mxGeometry width="50" height="50" relative="1" as="geometry">
            <mxPoint x="830" y="1260" as="sourcePoint" />
            <mxPoint x="880" y="1210" as="targetPoint" />
          </mxGeometry>
        </mxCell>
        <mxCell id="rLQXvGr-ElykhCDke65y-28" value="isBusy" style="edgeLabel;html=1;align=center;verticalAlign=middle;resizable=0;points=[];" vertex="1" connectable="0" parent="rLQXvGr-ElykhCDke65y-27">
          <mxGeometry x="-0.0061" y="-1" relative="1" as="geometry">
            <mxPoint as="offset" />
          </mxGeometry>
        </mxCell>
        <mxCell id="rLQXvGr-ElykhCDke65y-45" value="Dcache" style="rounded=0;whiteSpace=wrap;html=1;" vertex="1" parent="1">
          <mxGeometry x="820" y="290" width="80" height="40" as="geometry" />
        </mxCell>
      </root>
    </mxGraphModel>
  </diagram>
</mxfile>
